<?xml version="1.0" encoding="iso-8859-1"?>
<!-- Uploaded to: SVG Repo, www.svgrepo.com, Generator: SVG Repo Mixer Tools -->
<svg version="1.1" id="Layer_1" xmlns="http://www.w3.org/2000/svg" xmlns:xlink="http://www.w3.org/1999/xlink" 
	 viewBox="0 0 508.609 508.609" xml:space="preserve">
<path style="fill:#56545F;" d="M421.296,0H178.181c-28.143,0-51.2,22.718-51.2,51.2v120.371h254.983V71.883
	C397.222,54.93,410.785,31.534,421.296,0z"/>
<path style="fill:#1B9ED6;" d="M425.704,333.987L254.472,292.62L83.241,333.987c-32.551,7.799-55.947,39.672-55.947,76.63v97.653
	h454.019v-97.653C481.651,373.997,458.255,342.125,425.704,333.987z"/>
<g>
	<circle style="fill:#EEB490;" cx="164.279" cy="168.858" r="37.298"/>
	<circle style="fill:#EEB490;" cx="344.666" cy="168.858" r="37.298"/>
	<path style="fill:#EEB490;" d="M198.525,261.086v49.166c0,30.856,25.091,55.947,55.947,55.947l0,0
		c30.856,0,55.947-25.091,55.947-55.947v-49.166H198.525z"/>
</g>
<path style="fill:#1B9ED6;" d="M198.525,95.958c0,0-13.563,60.355-39.672,86.464v-78.665L198.525,95.958z"/>
<path style="fill:#FACCB4;" d="M159.193,67.136v134.951c0,52.556,42.723,95.279,95.279,95.279s95.279-42.723,95.279-95.279V97.992
	C266.679,144.445,159.193,67.136,159.193,67.136z"/>
<rect x="120.2" y="432.657" style="fill:#FCFCFD;" width="268.546" height="75.952"/>
</svg>